<?xml version="1.0" encoding="UTF-8"?>
<!DOCTYPE svg PUBLIC "-//W3C//DTD SVG 1.1//EN" "http://www.w3.org/Graphics/SVG/1.1/DTD/svg11.dtd">
<svg xmlns="http://www.w3.org/2000/svg" version="1.1" width="1080px" height="1080px" style="shape-rendering:geometricPrecision; text-rendering:geometricPrecision; image-rendering:optimizeQuality; fill-rule:evenodd; clip-rule:evenodd" xmlns:xlink="http://www.w3.org/1999/xlink">
<g><path style="opacity:1" fill="#000000" d="M 404.5,-0.5 C 494.5,-0.5 584.5,-0.5 674.5,-0.5C 674.5,14.5 674.5,29.5 674.5,44.5C 584.5,44.5 494.5,44.5 404.5,44.5C 404.5,29.5 404.5,14.5 404.5,-0.5 Z"/></g>
<g><path style="opacity:1" fill="#000000" d="M 404.5,44.5 C 404.5,59.5 404.5,74.5 404.5,89.5C 359.5,89.5 314.5,89.5 269.5,89.5C 269.5,74.5 269.5,59.5 269.5,44.5C 314.5,44.5 359.5,44.5 404.5,44.5 Z"/></g>
<g><path style="opacity:1" fill="#eee999" d="M 404.5,44.5 C 494.5,44.5 584.5,44.5 674.5,44.5C 674.5,59.5 674.5,74.5 674.5,89.5C 584.5,89.5 494.5,89.5 404.5,89.5C 404.5,74.5 404.5,59.5 404.5,44.5 Z"/></g>
<g><path style="opacity:1" fill="#000000" d="M 674.5,44.5 C 719.5,44.5 764.5,44.5 809.5,44.5C 809.5,59.5 809.5,74.5 809.5,89.5C 764.5,89.5 719.5,89.5 674.5,89.5C 674.5,74.5 674.5,59.5 674.5,44.5 Z"/></g>
<g><path style="opacity:1" fill="#000000" d="M 269.5,89.5 C 269.5,104.5 269.5,119.5 269.5,134.5C 239.5,134.5 209.5,134.5 179.5,134.5C 179.5,119.5 179.5,104.5 179.5,89.5C 209.5,89.5 239.5,89.5 269.5,89.5 Z"/></g>
<g><path style="opacity:1" fill="#eee999" d="M 269.5,89.5 C 314.5,89.5 359.5,89.5 404.5,89.5C 404.5,104.5 404.5,119.5 404.5,134.5C 374.5,134.5 344.5,134.5 314.5,134.5C 314.5,149.5 314.5,164.5 314.5,179.5C 284.5,179.5 254.5,179.5 224.5,179.5C 224.5,194.5 224.5,209.5 224.5,224.5C 209.5,224.5 194.5,224.5 179.5,224.5C 179.5,254.5 179.5,284.5 179.5,314.5C 164.5,314.5 149.5,314.5 134.5,314.5C 134.5,344.5 134.5,374.5 134.5,404.5C 119.5,404.5 104.5,404.5 89.5,404.5C 89.5,359.5 89.5,314.5 89.5,269.5C 104.5,269.5 119.5,269.5 134.5,269.5C 134.5,239.5 134.5,209.5 134.5,179.5C 149.5,179.5 164.5,179.5 179.5,179.5C 179.5,164.5 179.5,149.5 179.5,134.5C 209.5,134.5 239.5,134.5 269.5,134.5C 269.5,119.5 269.5,104.5 269.5,89.5 Z"/></g>
<g><path style="opacity:1" fill="#ebd846" d="M 404.5,89.5 C 494.5,89.5 584.5,89.5 674.5,89.5C 719.5,89.5 764.5,89.5 809.5,89.5C 809.5,104.5 809.5,119.5 809.5,134.5C 839.5,134.5 869.5,134.5 899.5,134.5C 899.5,149.5 899.5,164.5 899.5,179.5C 914.5,179.5 929.5,179.5 944.5,179.5C 944.5,209.5 944.5,239.5 944.5,269.5C 959.5,269.5 974.5,269.5 989.5,269.5C 989.5,314.5 989.5,359.5 989.5,404.5C 989.5,494.5 989.5,584.5 989.5,674.5C 974.5,674.5 959.5,674.5 944.5,674.5C 944.5,584.5 944.5,494.5 944.5,404.5C 929.5,404.5 914.5,404.5 899.5,404.5C 899.5,374.5 899.5,344.5 899.5,314.5C 884.5,314.5 869.5,314.5 854.5,314.5C 854.5,284.5 854.5,254.5 854.5,224.5C 824.5,224.5 794.5,224.5 764.5,224.5C 764.5,209.5 764.5,194.5 764.5,179.5C 734.5,179.5 704.5,179.5 674.5,179.5C 674.5,164.5 674.5,149.5 674.5,134.5C 584.5,134.5 494.5,134.5 404.5,134.5C 404.5,119.5 404.5,104.5 404.5,89.5 Z"/></g>
<g><path style="opacity:1" fill="#000000" d="M 809.5,89.5 C 839.5,89.5 869.5,89.5 899.5,89.5C 899.5,104.5 899.5,119.5 899.5,134.5C 869.5,134.5 839.5,134.5 809.5,134.5C 809.5,119.5 809.5,104.5 809.5,89.5 Z"/></g>
<g><path style="opacity:1" fill="#000000" d="M 179.5,134.5 C 179.5,149.5 179.5,164.5 179.5,179.5C 164.5,179.5 149.5,179.5 134.5,179.5C 134.5,164.5 134.5,149.5 134.5,134.5C 149.5,134.5 164.5,134.5 179.5,134.5 Z"/></g>
<g><path style="opacity:1" fill="#ebd846" d="M 404.5,134.5 C 404.5,149.5 404.5,164.5 404.5,179.5C 374.5,179.5 344.5,179.5 314.5,179.5C 314.5,164.5 314.5,149.5 314.5,134.5C 344.5,134.5 374.5,134.5 404.5,134.5 Z"/></g>
<g><path style="opacity:1" fill="#d09437" d="M 404.5,134.5 C 494.5,134.5 584.5,134.5 674.5,134.5C 674.5,149.5 674.5,164.5 674.5,179.5C 584.5,179.5 494.5,179.5 404.5,179.5C 404.5,164.5 404.5,149.5 404.5,134.5 Z"/></g>
<g><path style="opacity:1" fill="#000000" d="M 899.5,134.5 C 914.5,134.5 929.5,134.5 944.5,134.5C 944.5,149.5 944.5,164.5 944.5,179.5C 944.5,164.5 944.5,149.5 944.5,134.5C 929.5,134.5 914.5,134.5 899.5,134.5 Z"/></g>
<g><path style="opacity:1" fill="#000000" d="M 134.5,179.5 C 134.5,209.5 134.5,239.5 134.5,269.5C 119.5,269.5 104.5,269.5 89.5,269.5C 89.5,239.5 89.5,209.5 89.5,179.5C 104.5,179.5 119.5,179.5 134.5,179.5 Z"/></g>
<g><path style="opacity:1" fill="#ebd846" d="M 314.5,179.5 C 314.5,194.5 314.5,209.5 314.5,224.5C 284.5,224.5 254.5,224.5 224.5,224.5C 224.5,209.5 224.5,194.5 224.5,179.5C 254.5,179.5 284.5,179.5 314.5,179.5 Z"/></g>
<g><path style="opacity:1" fill="#d09437" d="M 314.5,179.5 C 344.5,179.5 374.5,179.5 404.5,179.5C 404.5,194.5 404.5,209.5 404.5,224.5C 374.5,224.5 344.5,224.5 314.5,224.5C 314.5,209.5 314.5,194.5 314.5,179.5 Z"/></g>
<g><path style="opacity:1" fill="#ebd846" d="M 404.5,179.5 C 494.5,179.5 584.5,179.5 674.5,179.5C 674.5,194.5 674.5,209.5 674.5,224.5C 704.5,224.5 734.5,224.5 764.5,224.5C 764.5,239.5 764.5,254.5 764.5,269.5C 779.5,269.5 794.5,269.5 809.5,269.5C 809.5,284.5 809.5,299.5 809.5,314.5C 824.5,314.5 839.5,314.5 854.5,314.5C 854.5,344.5 854.5,374.5 854.5,404.5C 869.5,404.5 884.5,404.5 899.5,404.5C 899.5,494.5 899.5,584.5 899.5,674.5C 884.5,674.5 869.5,674.5 854.5,674.5C 854.5,704.5 854.5,734.5 854.5,764.5C 839.5,764.5 824.5,764.5 809.5,764.5C 809.5,779.5 809.5,794.5 809.5,809.5C 794.5,809.5 779.5,809.5 764.5,809.5C 764.5,824.5 764.5,839.5 764.5,854.5C 734.5,854.5 704.5,854.5 674.5,854.5C 674.5,869.5 674.5,884.5 674.5,899.5C 584.5,899.5 494.5,899.5 404.5,899.5C 404.5,884.5 404.5,869.5 404.5,854.5C 374.5,854.5 344.5,854.5 314.5,854.5C 314.5,839.5 314.5,824.5 314.5,809.5C 299.5,809.5 284.5,809.5 269.5,809.5C 269.5,794.5 269.5,779.5 269.5,764.5C 254.5,764.5 239.5,764.5 224.5,764.5C 224.5,734.5 224.5,704.5 224.5,674.5C 209.5,674.5 194.5,674.5 179.5,674.5C 179.5,584.5 179.5,494.5 179.5,404.5C 194.5,404.5 209.5,404.5 224.5,404.5C 224.5,374.5 224.5,344.5 224.5,314.5C 239.5,314.5 254.5,314.5 269.5,314.5C 269.5,299.5 269.5,284.5 269.5,269.5C 284.5,269.5 299.5,269.5 314.5,269.5C 314.5,254.5 314.5,239.5 314.5,224.5C 344.5,224.5 374.5,224.5 404.5,224.5C 404.5,209.5 404.5,194.5 404.5,179.5 Z"/></g>
<g><path style="opacity:1" fill="#d09437" d="M 674.5,179.5 C 704.5,179.5 734.5,179.5 764.5,179.5C 764.5,194.5 764.5,209.5 764.5,224.5C 734.5,224.5 704.5,224.5 674.5,224.5C 674.5,209.5 674.5,194.5 674.5,179.5 Z"/></g>
<g><path style="opacity:1" fill="#000000" d="M 944.5,179.5 C 959.5,179.5 974.5,179.5 989.5,179.5C 989.5,209.5 989.5,239.5 989.5,269.5C 974.5,269.5 959.5,269.5 944.5,269.5C 944.5,239.5 944.5,209.5 944.5,179.5 Z"/></g>
<g><path style="opacity:1" fill="#ebd846" d="M 224.5,224.5 C 224.5,254.5 224.5,284.5 224.5,314.5C 209.5,314.5 194.5,314.5 179.5,314.5C 179.5,284.5 179.5,254.5 179.5,224.5C 194.5,224.5 209.5,224.5 224.5,224.5 Z"/></g>
<g><path style="opacity:1" fill="#d09437" d="M 224.5,224.5 C 254.5,224.5 284.5,224.5 314.5,224.5C 314.5,239.5 314.5,254.5 314.5,269.5C 299.5,269.5 284.5,269.5 269.5,269.5C 269.5,284.5 269.5,299.5 269.5,314.5C 254.5,314.5 239.5,314.5 224.5,314.5C 224.5,284.5 224.5,254.5 224.5,224.5 Z"/></g>
<g><path style="opacity:1" fill="#d09437" d="M 764.5,224.5 C 794.5,224.5 824.5,224.5 854.5,224.5C 854.5,254.5 854.5,284.5 854.5,314.5C 839.5,314.5 824.5,314.5 809.5,314.5C 809.5,299.5 809.5,284.5 809.5,269.5C 794.5,269.5 779.5,269.5 764.5,269.5C 764.5,254.5 764.5,239.5 764.5,224.5 Z"/></g>
<g><path style="opacity:1" fill="#000000" d="M 89.5,269.5 C 89.5,314.5 89.5,359.5 89.5,404.5C 74.5,404.5 59.5,404.5 44.5,404.5C 44.5,359.5 44.5,314.5 44.5,269.5C 59.5,269.5 74.5,269.5 89.5,269.5 Z"/></g>
<g><path style="opacity:1" fill="#feff95" d="M 629.5,314.5 C 569.5,314.5 509.5,314.5 449.5,314.5C 449.5,299.5 449.5,284.5 449.5,269.5C 509.5,269.5 569.5,269.5 629.5,269.5C 629.5,284.5 629.5,299.5 629.5,314.5 Z"/></g>
<g><path style="opacity:1" fill="#000000" d="M 989.5,269.5 C 1004.5,269.5 1019.5,269.5 1034.5,269.5C 1034.5,314.5 1034.5,359.5 1034.5,404.5C 1019.5,404.5 1004.5,404.5 989.5,404.5C 989.5,359.5 989.5,314.5 989.5,269.5 Z"/></g>
<g><path style="opacity:1" fill="#ebd846" d="M 179.5,314.5 C 179.5,344.5 179.5,374.5 179.5,404.5C 164.5,404.5 149.5,404.5 134.5,404.5C 134.5,374.5 134.5,344.5 134.5,314.5C 149.5,314.5 164.5,314.5 179.5,314.5 Z"/></g>
<g><path style="opacity:1" fill="#d09437" d="M 179.5,314.5 C 194.5,314.5 209.5,314.5 224.5,314.5C 224.5,344.5 224.5,374.5 224.5,404.5C 209.5,404.5 194.5,404.5 179.5,404.5C 179.5,374.5 179.5,344.5 179.5,314.5 Z"/></g>
<g><path style="opacity:1" fill="#feff95" d="M 449.5,314.5 C 449.5,464.5 449.5,614.5 449.5,764.5C 434.5,764.5 419.5,764.5 404.5,764.5C 404.5,614.5 404.5,464.5 404.5,314.5C 419.5,314.5 434.5,314.5 449.5,314.5 Z"/></g>
<g><path style="opacity:1" fill="#ebd846" d="M 449.5,314.5 C 509.5,314.5 569.5,314.5 629.5,314.5C 629.5,464.5 629.5,614.5 629.5,764.5C 569.5,764.5 509.5,764.5 449.5,764.5C 449.5,614.5 449.5,464.5 449.5,314.5 Z"/></g>
<g><path style="opacity:1" fill="#d09437" d="M 629.5,314.5 C 644.5,314.5 659.5,314.5 674.5,314.5C 674.5,464.5 674.5,614.5 674.5,764.5C 659.5,764.5 644.5,764.5 629.5,764.5C 629.5,614.5 629.5,464.5 629.5,314.5 Z"/></g>
<g><path style="opacity:1" fill="#d09437" d="M 854.5,314.5 C 869.5,314.5 884.5,314.5 899.5,314.5C 899.5,344.5 899.5,374.5 899.5,404.5C 884.5,404.5 869.5,404.5 854.5,404.5C 854.5,374.5 854.5,344.5 854.5,314.5 Z"/></g>
<g><path style="opacity:1" fill="#000000" d="M -0.5,404.5 C 14.5,404.5 29.5,404.5 44.5,404.5C 44.5,494.5 44.5,584.5 44.5,674.5C 29.5,674.5 14.5,674.5 -0.5,674.5C -0.5,584.5 -0.5,494.5 -0.5,404.5 Z"/></g>
<g><path style="opacity:1" fill="#eee999" d="M 44.5,404.5 C 59.5,404.5 74.5,404.5 89.5,404.5C 89.5,494.5 89.5,584.5 89.5,674.5C 74.5,674.5 59.5,674.5 44.5,674.5C 44.5,584.5 44.5,494.5 44.5,404.5 Z"/></g>
<g><path style="opacity:1" fill="#ebd846" d="M 89.5,404.5 C 104.5,404.5 119.5,404.5 134.5,404.5C 134.5,494.5 134.5,584.5 134.5,674.5C 149.5,674.5 164.5,674.5 179.5,674.5C 179.5,704.5 179.5,734.5 179.5,764.5C 194.5,764.5 209.5,764.5 224.5,764.5C 224.5,794.5 224.5,824.5 224.5,854.5C 254.5,854.5 284.5,854.5 314.5,854.5C 314.5,869.5 314.5,884.5 314.5,899.5C 344.5,899.5 374.5,899.5 404.5,899.5C 404.5,914.5 404.5,929.5 404.5,944.5C 494.5,944.5 584.5,944.5 674.5,944.5C 674.5,959.5 674.5,974.5 674.5,989.5C 584.5,989.5 494.5,989.5 404.5,989.5C 359.5,989.5 314.5,989.5 269.5,989.5C 269.5,974.5 269.5,959.5 269.5,944.5C 239.5,944.5 209.5,944.5 179.5,944.5C 179.5,929.5 179.5,914.5 179.5,899.5C 164.5,899.5 149.5,899.5 134.5,899.5C 134.5,869.5 134.5,839.5 134.5,809.5C 119.5,809.5 104.5,809.5 89.5,809.5C 89.5,764.5 89.5,719.5 89.5,674.5C 89.5,584.5 89.5,494.5 89.5,404.5 Z"/></g>
<g><path style="opacity:1" fill="#d09437" d="M 134.5,404.5 C 149.5,404.5 164.5,404.5 179.5,404.5C 179.5,494.5 179.5,584.5 179.5,674.5C 164.5,674.5 149.5,674.5 134.5,674.5C 134.5,584.5 134.5,494.5 134.5,404.5 Z"/></g>
<g><path style="opacity:1" fill="#eee999" d="M 899.5,404.5 C 914.5,404.5 929.5,404.5 944.5,404.5C 944.5,494.5 944.5,584.5 944.5,674.5C 929.5,674.5 914.5,674.5 899.5,674.5C 899.5,584.5 899.5,494.5 899.5,404.5 Z"/></g>
<g><path style="opacity:1" fill="#d09437" d="M 989.5,404.5 C 1004.5,404.5 1019.5,404.5 1034.5,404.5C 1034.5,494.5 1034.5,584.5 1034.5,674.5C 1019.5,674.5 1004.5,674.5 989.5,674.5C 989.5,584.5 989.5,494.5 989.5,404.5 Z"/></g>
<g><path style="opacity:1" fill="#000000" d="M 1034.5,404.5 C 1049.5,404.5 1064.5,404.5 1079.5,404.5C 1079.5,494.5 1079.5,584.5 1079.5,674.5C 1064.5,674.5 1049.5,674.5 1034.5,674.5C 1034.5,584.5 1034.5,494.5 1034.5,404.5 Z"/></g>
<g><path style="opacity:1" fill="#000000" d="M 44.5,674.5 C 59.5,674.5 74.5,674.5 89.5,674.5C 89.5,719.5 89.5,764.5 89.5,809.5C 74.5,809.5 59.5,809.5 44.5,809.5C 44.5,764.5 44.5,719.5 44.5,674.5 Z"/></g>
<g><path style="opacity:1" fill="#d09437" d="M 179.5,674.5 C 194.5,674.5 209.5,674.5 224.5,674.5C 224.5,704.5 224.5,734.5 224.5,764.5C 209.5,764.5 194.5,764.5 179.5,764.5C 179.5,734.5 179.5,704.5 179.5,674.5 Z"/></g>
<g><path style="opacity:1" fill="#eee999" d="M 899.5,674.5 C 899.5,704.5 899.5,734.5 899.5,764.5C 884.5,764.5 869.5,764.5 854.5,764.5C 854.5,734.5 854.5,704.5 854.5,674.5C 869.5,674.5 884.5,674.5 899.5,674.5 Z"/></g>
<g><path style="opacity:1" fill="#ebd846" d="M 899.5,674.5 C 914.5,674.5 929.5,674.5 944.5,674.5C 944.5,704.5 944.5,734.5 944.5,764.5C 929.5,764.5 914.5,764.5 899.5,764.5C 899.5,734.5 899.5,704.5 899.5,674.5 Z"/></g>
<g><path style="opacity:1" fill="#d09437" d="M 944.5,674.5 C 959.5,674.5 974.5,674.5 989.5,674.5C 989.5,719.5 989.5,764.5 989.5,809.5C 974.5,809.5 959.5,809.5 944.5,809.5C 944.5,839.5 944.5,869.5 944.5,899.5C 929.5,899.5 914.5,899.5 899.5,899.5C 899.5,914.5 899.5,929.5 899.5,944.5C 869.5,944.5 839.5,944.5 809.5,944.5C 809.5,959.5 809.5,974.5 809.5,989.5C 764.5,989.5 719.5,989.5 674.5,989.5C 674.5,974.5 674.5,959.5 674.5,944.5C 704.5,944.5 734.5,944.5 764.5,944.5C 764.5,929.5 764.5,914.5 764.5,899.5C 794.5,899.5 824.5,899.5 854.5,899.5C 854.5,884.5 854.5,869.5 854.5,854.5C 869.5,854.5 884.5,854.5 899.5,854.5C 899.5,824.5 899.5,794.5 899.5,764.5C 914.5,764.5 929.5,764.5 944.5,764.5C 944.5,734.5 944.5,704.5 944.5,674.5 Z"/></g>
<g><path style="opacity:1" fill="#000000" d="M 989.5,674.5 C 1004.5,674.5 1019.5,674.5 1034.5,674.5C 1034.5,719.5 1034.5,764.5 1034.5,809.5C 1019.5,809.5 1004.5,809.5 989.5,809.5C 989.5,764.5 989.5,719.5 989.5,674.5 Z"/></g>
<g><path style="opacity:1" fill="#d09437" d="M 224.5,764.5 C 239.5,764.5 254.5,764.5 269.5,764.5C 269.5,779.5 269.5,794.5 269.5,809.5C 284.5,809.5 299.5,809.5 314.5,809.5C 314.5,824.5 314.5,839.5 314.5,854.5C 284.5,854.5 254.5,854.5 224.5,854.5C 224.5,824.5 224.5,794.5 224.5,764.5 Z"/></g>
<g><path style="opacity:1" fill="#d09437" d="M 449.5,764.5 C 509.5,764.5 569.5,764.5 629.5,764.5C 629.5,779.5 629.5,794.5 629.5,809.5C 569.5,809.5 509.5,809.5 449.5,809.5C 449.5,794.5 449.5,779.5 449.5,764.5 Z"/></g>
<g><path style="opacity:1" fill="#eee999" d="M 854.5,764.5 C 854.5,794.5 854.5,824.5 854.5,854.5C 824.5,854.5 794.5,854.5 764.5,854.5C 764.5,839.5 764.5,824.5 764.5,809.5C 779.5,809.5 794.5,809.5 809.5,809.5C 809.5,794.5 809.5,779.5 809.5,764.5C 824.5,764.5 839.5,764.5 854.5,764.5 Z"/></g>
<g><path style="opacity:1" fill="#ebd846" d="M 854.5,764.5 C 869.5,764.5 884.5,764.5 899.5,764.5C 899.5,794.5 899.5,824.5 899.5,854.5C 884.5,854.5 869.5,854.5 854.5,854.5C 854.5,824.5 854.5,794.5 854.5,764.5 Z"/></g>
<g><path style="opacity:1" fill="#000000" d="M 89.5,809.5 C 104.5,809.5 119.5,809.5 134.5,809.5C 134.5,839.5 134.5,869.5 134.5,899.5C 119.5,899.5 104.5,899.5 89.5,899.5C 89.5,869.5 89.5,839.5 89.5,809.5 Z"/></g>
<g><path style="opacity:1" fill="#000000" d="M 989.5,809.5 C 989.5,839.5 989.5,869.5 989.5,899.5C 974.5,899.5 959.5,899.5 944.5,899.5C 944.5,869.5 944.5,839.5 944.5,809.5C 959.5,809.5 974.5,809.5 989.5,809.5 Z"/></g>
<g><path style="opacity:1" fill="#d09437" d="M 314.5,854.5 C 344.5,854.5 374.5,854.5 404.5,854.5C 404.5,869.5 404.5,884.5 404.5,899.5C 374.5,899.5 344.5,899.5 314.5,899.5C 314.5,884.5 314.5,869.5 314.5,854.5 Z"/></g>
<g><path style="opacity:1" fill="#eee999" d="M 764.5,854.5 C 764.5,869.5 764.5,884.5 764.5,899.5C 734.5,899.5 704.5,899.5 674.5,899.5C 674.5,884.5 674.5,869.5 674.5,854.5C 704.5,854.5 734.5,854.5 764.5,854.5 Z"/></g>
<g><path style="opacity:1" fill="#ebd846" d="M 764.5,854.5 C 794.5,854.5 824.5,854.5 854.5,854.5C 854.5,869.5 854.5,884.5 854.5,899.5C 824.5,899.5 794.5,899.5 764.5,899.5C 764.5,884.5 764.5,869.5 764.5,854.5 Z"/></g>
<g><path style="opacity:1" fill="#000000" d="M 134.5,899.5 C 149.5,899.5 164.5,899.5 179.5,899.5C 179.5,914.5 179.5,929.5 179.5,944.5C 164.5,944.5 149.5,944.5 134.5,944.5C 134.5,929.5 134.5,914.5 134.5,899.5 Z"/></g>
<g><path style="opacity:1" fill="#eee999" d="M 404.5,899.5 C 494.5,899.5 584.5,899.5 674.5,899.5C 674.5,914.5 674.5,929.5 674.5,944.5C 584.5,944.5 494.5,944.5 404.5,944.5C 404.5,929.5 404.5,914.5 404.5,899.5 Z"/></g>
<g><path style="opacity:1" fill="#ebd846" d="M 674.5,899.5 C 704.5,899.5 734.5,899.5 764.5,899.5C 764.5,914.5 764.5,929.5 764.5,944.5C 734.5,944.5 704.5,944.5 674.5,944.5C 674.5,929.5 674.5,914.5 674.5,899.5 Z"/></g>
<g><path style="opacity:1" fill="#000000" d="M 944.5,899.5 C 944.5,914.5 944.5,929.5 944.5,944.5C 929.5,944.5 914.5,944.5 899.5,944.5C 899.5,929.5 899.5,914.5 899.5,899.5C 914.5,899.5 929.5,899.5 944.5,899.5 Z"/></g>
<g><path style="opacity:1" fill="#000000" d="M 179.5,944.5 C 209.5,944.5 239.5,944.5 269.5,944.5C 269.5,959.5 269.5,974.5 269.5,989.5C 239.5,989.5 209.5,989.5 179.5,989.5C 179.5,974.5 179.5,959.5 179.5,944.5 Z"/></g>
<g><path style="opacity:1" fill="#000000" d="M 899.5,944.5 C 899.5,959.5 899.5,974.5 899.5,989.5C 869.5,989.5 839.5,989.5 809.5,989.5C 809.5,974.5 809.5,959.5 809.5,944.5C 839.5,944.5 869.5,944.5 899.5,944.5 Z"/></g>
<g><path style="opacity:1" fill="#000000" d="M 269.5,989.5 C 314.5,989.5 359.5,989.5 404.5,989.5C 404.5,1004.5 404.5,1019.5 404.5,1034.5C 359.5,1034.5 314.5,1034.5 269.5,1034.5C 269.5,1019.5 269.5,1004.5 269.5,989.5 Z"/></g>
<g><path style="opacity:1" fill="#d09437" d="M 404.5,989.5 C 494.5,989.5 584.5,989.5 674.5,989.5C 674.5,1004.5 674.5,1019.5 674.5,1034.5C 584.5,1034.5 494.5,1034.5 404.5,1034.5C 404.5,1019.5 404.5,1004.5 404.5,989.5 Z"/></g>
<g><path style="opacity:1" fill="#000000" d="M 674.5,989.5 C 719.5,989.5 764.5,989.5 809.5,989.5C 809.5,1004.5 809.5,1019.5 809.5,1034.5C 764.5,1034.5 719.5,1034.5 674.5,1034.5C 674.5,1019.5 674.5,1004.5 674.5,989.5 Z"/></g>
<g><path style="opacity:1" fill="#000000" d="M 404.5,1034.5 C 494.5,1034.5 584.5,1034.5 674.5,1034.5C 674.5,1049.5 674.5,1064.5 674.5,1079.5C 584.5,1079.5 494.5,1079.5 404.5,1079.5C 404.5,1064.5 404.5,1049.5 404.5,1034.5 Z"/></g>
</svg>
